<svg fill="none" height="35" viewBox="0 0 161 35" width="161" xmlns="http://www.w3.org/2000/svg"><path d="m37.3 9-.3.3a17 17 0 0 1-3.5 3.2h.9c3.6 0 6.6 3 6.6 6.8 0 3.9-3 7-6.6 7a6 6 0 0 1-3.2-1l-1.2-.8c-2 2.7-4.5 5.3-7.5 6.8a10 10 0 0 1-8 .2q3 3 7.2 3.1 4.4-.1 7.2-3.2.9-1 1.4-2 2 .9 4 .9c5.8 0 10.5-4.9 10.5-11 0-4.9-3.2-9-7.5-10.4m-10.5 8.7-.1-.2-4.3 2 1.8-4.4-.2-.2-3.3 3.4-6 6.3a6 6 0 0 1-4.3 1.8 7 7 0 0 1-6.6-7c0-3.8 3-6.9 6.6-6.9q2.6.1 4.5 2 2.8-4.1 7-6.6 1.3-.8 2.8-1 2.2-.5 4.4 0l.1-.1.2-.2a9.7 9.7 0 0 0-13.6.8l-1.5 2a10 10 0 0 0-4-.8C4.7 8.5 0 13.4 0 19.5s4.6 10.8 10.4 10.8q4.6-.1 7.5-3.3l6.2-6.4z" fill="currentColor"></path><path d="m36.6 9 .2-.3c1.7-2 3.2-5 3.3-8.7a14 14 0 0 0-10 6.3H30l-.1.3-.2.2-.1.2-.2.2-.9 1.8-4.1-.2-2.9 3.3 4 .9-1 1.4.2.2L27 17l.2.2.2-.1.1-.2 1-.9 1 4.2 3-3.2-.4-4v-.3l.4-.2c.7-.5 2.4-1.6 4-3.5M34 5.7q.2-1 1.2-.8.9.3.7 1.3a1 1 0 0 1-1.1.8 1 1 0 0 1-.8-1.3" fill="#21ABE1"></path><path d="M49.5 24.3v-11l.3-.6.5-.2H60q.3 0 .5.2l.3.6v.9l-.3.6-.5.2h-7.2v2.6H59q.3 0 .5.2l.3.6v.8q0 .4-.3.6-.2.3-.5.3h-6.2v2.6H60q.3 0 .5.2t.2.6v.9l-.2.6-.6.2h-9.5q-.3 0-.5-.2zm12.3.9q-.4 0-.5-.4l.2-.4 4.2-5.7-4-5.4-.1-.4q0-.4.4-.4h1.8q.8 0 1.4.8l2.3 3.1 2.3-3q.6-.9 1.4-1H73q.5 0 .5.5l-.2.4-4 5.4 4.2 5.7q.3.2.2.3v.2q0 .3-.4.3h-1.8q-.8 0-1.4-.8l-2.6-3.5-2.5 3.5q-.6.8-1.5.8zm13.4-.8v-11q0-.4.3-.7l.5-.2h6.3q5 0 5 5t-5 4.9h-4v2q0 .3-.2.5t-.5.3H76q-.3 0-.5-.3zm3.2-4.5h3q1.4 0 2.1-.5t.7-2-.7-1.9-2.1-.5h-3zm9.4 4.5 2.1-8.5q.9-3.4 5.5-3.4h4.5q.3 0 .5.2l.2.6v11q0 .4-.2.7l-.6.2h-1.6q-.3 0-.5-.2l-.2-.6V22h-6l-.5 2.3q0 .3-.4.6l-.6.2h-1.6q-.3 0-.5-.2l-.1-.4zm4.4-4.8h5.3V15H95q-.8 0-1.4.5t-.8 1.3zm10.9 4.8v-11q0-.4.2-.7l.6-.2h2.4l.6.2.6.6 5 8.3v-8.3l.2-.6.6-.2h1.4q.3 0 .5.2l.3.6v11q0 .4-.3.6-.2.3-.5.3h-2.8q-.3 0-.6-.3l-.6-.5-4.5-7.6v7.6q0 .3-.3.5t-.5.3h-1.5q-.3 0-.6-.3zm14.9 0v-11q0-.4.2-.7l.6-.2h4.6q3.6 0 5.3 1.5 1.6 1.6 1.6 4.8 0 3.3-1.6 4.9-1.7 1.5-5.3 1.5h-4.6l-.6-.2zm3.1-1.7h2.2q2.2 0 3-.9.9-.9.9-3t-.8-3q-.9-.8-3-.8H121zm11.1 1.7v-11q0-.4.2-.7l.6-.2h1.5l.6.2.2.6v11q0 .4-.2.6l-.6.3H133q-.4 0-.6-.2zm7.3-2.1q1 0 1 1.2v.6q0 .5-.2.9-.3.3-.8.3h-1q-.6 0-.9-.3-.3-.4-.3-1v-.5q0-.6.3-.9t.8-.3zm3.1 2.1v-11q0-.4.2-.7l.6-.2h1.5q.4 0 .6.2.3.3.2.6v11q0 .4-.2.6-.2.3-.6.3h-1.5l-.6-.2zm16.7-.5q-1.7 1.6-5 1.6t-5-1.6-1.7-5 1.7-5 5-1.7 5 1.6 1.6 5-1.6 5m-2.3-8.2q-.9-1-2.7-1-2 0-2.7 1-.9 1-.9 3.1t.9 3.2 2.7 1 2.7-1 .8-3.2q0-2-.8-3.1" fill="currentColor"></path></svg>