<svg version="1.1" id="Layer_1" xmlns:x="ns_extend;" xmlns:i="ns_ai;" xmlns:graph="ns_graphs;" xmlns="http://www.w3.org/2000/svg" xmlns:xlink="http://www.w3.org/1999/xlink" x="0px" y="0px" viewBox="0 0 193 70" style="enable-background:new 0 0 193 70;" xml:space="preserve">
 <style type="text/css">
  .st0{fill:#0D0E10;}
	.st1{fill:#5456DF;}
 </style>
 <metadata>
  <sfw xmlns="ns_sfw;">
   <slices>
   </slices>
   <sliceSourceBounds bottomLeftOrigin="true" height="69.5" width="193" x="0" y="0.5">
   </sliceSourceBounds>
  </sfw>
 </metadata>
 <g>
  <path class="st0" d="M16.2,57.2H5.9v-19c0-1-0.3-1.7-0.8-2.3c-0.5-0.5-1.2-0.8-2.2-0.8c-1,0-1.7,0.3-2.2,0.8
		C0.3,36.4,0,37.1,0,38.1v21c0,0.9,0.3,1.7,0.8,2.2c0.5,0.5,1.3,0.8,2.2,0.8h13.2c0.8,0,1.4-0.2,1.9-0.7c0.4-0.4,0.7-1.1,0.7-1.9
		c0-0.8-0.2-1.4-0.7-1.8C17.7,57.4,17,57.2,16.2,57.2z">
  </path>
  <path class="st0" d="M27.8,47.5c0.7-0.4,1.5-0.7,2.4-0.7c0.8,0,1.6,0.2,2.1,0.5c0.6,0.4,1,0.9,1.3,1.6c0.3,0.6,0.4,1.3,0.4,2.1
		h-8.3c0.1-0.6,0.2-1.2,0.4-1.7C26.6,48.5,27.2,47.9,27.8,47.5z M38.5,53.7c0.3-0.2,0.5-0.6,0.5-1.1c0-1.5-0.2-2.8-0.6-4
		c-0.4-1.2-1-2.2-1.8-3c-0.8-0.8-1.7-1.5-2.8-1.9C32.6,43.2,31.4,43,30,43c-1.9,0-3.5,0.4-5,1.2c-1.5,0.8-2.6,2-3.4,3.4
		c-0.8,1.5-1.2,3.2-1.2,5.1c0,2,0.4,3.7,1.3,5.2c0.9,1.5,2.1,2.6,3.7,3.4c1.6,0.8,3.5,1.2,5.7,1.2c1,0,2.1-0.1,3.2-0.4
		c1.1-0.2,2.1-0.6,2.9-1.1c0.5-0.3,0.9-0.6,1.1-1.1c0.2-0.4,0.3-0.8,0.3-1.3c0-0.4-0.2-0.8-0.4-1.1c-0.3-0.3-0.6-0.5-1.1-0.6
		c-0.5-0.1-1,0-1.6,0.3c-0.7,0.3-1.4,0.6-2.2,0.7c-0.8,0.2-1.5,0.2-2.1,0.2c-1.8,0-3.1-0.5-4-1.4c-0.7-0.7-1.1-1.6-1.3-2.9h11.3
		C37.7,54,38.2,53.9,38.5,53.7z">
  </path>
  <path class="st0" d="M53.3,56.8c-0.3,0.6-0.8,1.1-1.4,1.4c-0.6,0.3-1.2,0.5-2,0.5c-0.9,0-1.7-0.2-2.2-0.7c-0.5-0.5-0.7-1-0.7-1.8
		c0-0.6,0.2-1,0.5-1.4c0.3-0.3,0.9-0.6,1.7-0.7c0.8-0.1,1.9-0.2,3.2-0.2h1.3v0.8C53.8,55.5,53.6,56.2,53.3,56.8z M55.5,43.9
		c-1.3-0.6-2.9-0.9-4.8-0.9c-0.9,0-1.9,0.1-2.9,0.3c-1.1,0.2-2.2,0.5-3.4,1c-0.6,0.2-1,0.5-1.3,0.9c-0.3,0.4-0.4,0.9-0.4,1.3
		c0,0.4,0.1,0.9,0.3,1.2c0.2,0.4,0.6,0.6,1,0.8c0.4,0.1,0.9,0.1,1.5-0.2c1-0.4,1.9-0.7,2.7-0.8c0.8-0.2,1.6-0.2,2.2-0.2
		c1.2,0,2.1,0.2,2.6,0.7c0.5,0.5,0.8,1.3,0.8,2.4V51h-1.4c-2.7,0-4.8,0.2-6.4,0.5c-1.6,0.3-2.8,0.9-3.5,1.7
		c-0.7,0.8-1.1,1.9-1.1,3.3c0,1.1,0.3,2.2,0.9,3.1c0.6,0.9,1.5,1.6,2.6,2.2c1.1,0.5,2.3,0.8,3.7,0.8c1,0,1.9-0.2,2.6-0.5
		c0.8-0.3,1.4-0.8,1.9-1.5c0.3-0.4,0.5-0.8,0.7-1.3v0.2c0,0.9,0.2,1.7,0.7,2.2c0.5,0.5,1.1,0.8,2,0.8c0.9,0,1.5-0.3,2-0.8
		c0.5-0.5,0.7-1.2,0.7-2.2v-8.5c0-1.9-0.3-3.4-1-4.6C57.7,45.3,56.8,44.4,55.5,43.9z">
  </path>
  <path class="st0" d="M74.9,57.7c-0.6,0.4-1.3,0.6-2.2,0.6c-1.2,0-2.2-0.5-3-1.4c-0.8-0.9-1.1-2.3-1.1-4.2c0-1.3,0.2-2.3,0.5-3.1
		c0.3-0.8,0.8-1.4,1.5-1.8c0.6-0.4,1.3-0.6,2.2-0.6c1.3,0,2.3,0.4,3,1.3c0.8,0.9,1.1,2.3,1.1,4.1c0,1.3-0.2,2.3-0.5,3.1
		C76,56.7,75.5,57.3,74.9,57.7z M79.7,34.8c-0.9,0-1.7,0.2-2.1,0.7c-0.5,0.5-0.7,1.2-0.7,2.2V46c-0.4-0.7-1.1-1.4-1.9-1.9
		C73.7,43.4,72.4,43,71,43c-1.6,0-3.1,0.4-4.3,1.2c-1.2,0.8-2.2,1.9-2.9,3.4c-0.7,1.5-1,3.2-1,5.2c0,2,0.3,3.8,1,5.2
		c0.7,1.5,1.7,2.6,2.9,3.4c1.2,0.8,2.7,1.2,4.3,1.2c1.5,0,2.8-0.4,4-1.1c0.8-0.5,1.4-1.2,1.9-2v0.1c0,0.9,0.2,1.7,0.7,2.2
		c0.5,0.5,1.2,0.8,2.1,0.8c0.9,0,1.6-0.3,2.1-0.8c0.5-0.5,0.7-1.2,0.7-2.2V37.8c0-1-0.3-1.7-0.8-2.2C81.3,35.1,80.6,34.8,79.7,34.8z
		">
  </path>
  <path class="st0" d="M112.9,34.8c-0.7,0-1.3,0.1-1.8,0.4c-0.4,0.3-0.9,0.8-1.2,1.5l-8.2,15l-8.2-15c-0.4-0.7-0.8-1.2-1.2-1.5
		c-0.4-0.3-1.1-0.4-1.8-0.4c-0.9,0-1.6,0.2-2,0.7c-0.5,0.5-0.7,1.2-0.7,2v22.2c0,0.9,0.2,1.5,0.7,2c0.5,0.5,1.1,0.7,2,0.7
		c0.9,0,1.6-0.2,2-0.7c0.4-0.5,0.7-1.2,0.7-2V45.9L99.2,57c0.3,0.5,0.6,0.8,1,1.1c0.4,0.3,0.8,0.4,1.4,0.4c0.6,0,1-0.1,1.4-0.4
		c0.3-0.2,0.7-0.6,1-1.1l6.3-11.2v14c0,0.9,0.2,1.5,0.7,2s1.1,0.7,2,0.7c0.9,0,1.5-0.2,2-0.7s0.7-1.2,0.7-2V37.6
		c0-0.9-0.2-1.5-0.7-2C114.4,35.1,113.7,34.8,112.9,34.8z">
  </path>
  <path class="st0" d="M131.6,56.8c-0.3,0.6-0.8,1.1-1.4,1.4c-0.6,0.3-1.2,0.5-2,0.5c-0.9,0-1.7-0.2-2.2-0.7c-0.5-0.5-0.7-1-0.7-1.8
		c0-0.6,0.2-1,0.5-1.4c0.3-0.3,0.9-0.6,1.7-0.7c0.8-0.1,1.9-0.2,3.2-0.2h1.3v0.8C132.1,55.5,131.9,56.2,131.6,56.8z M133.8,43.9
		c-1.3-0.6-2.9-0.9-4.8-0.9c-0.9,0-1.9,0.1-2.9,0.3c-1.1,0.2-2.2,0.5-3.4,1c-0.6,0.2-1,0.5-1.3,0.9c-0.3,0.4-0.4,0.9-0.4,1.3
		c0,0.4,0.1,0.9,0.3,1.2c0.2,0.4,0.6,0.6,1,0.8c0.4,0.1,0.9,0.1,1.5-0.2c1-0.4,1.9-0.7,2.7-0.8c0.8-0.2,1.6-0.2,2.2-0.2
		c1.2,0,2.1,0.2,2.6,0.7c0.5,0.5,0.8,1.3,0.8,2.4V51h-1.4c-2.7,0-4.8,0.2-6.4,0.5c-1.6,0.3-2.8,0.9-3.5,1.7
		c-0.7,0.8-1.1,1.9-1.1,3.3c0,1.1,0.3,2.2,0.9,3.1c0.6,0.9,1.5,1.6,2.6,2.2c1.1,0.5,2.3,0.8,3.7,0.8c1,0,1.9-0.2,2.6-0.5
		c0.8-0.3,1.4-0.8,1.9-1.5c0.3-0.4,0.5-0.8,0.7-1.3v0.2c0,0.9,0.2,1.7,0.7,2.2c0.5,0.5,1.1,0.8,2,0.8c0.9,0,1.5-0.3,2-0.8
		c0.5-0.5,0.7-1.2,0.7-2.2v-8.5c0-1.9-0.3-3.4-1-4.6C136,45.3,135,44.4,133.8,43.9z">
  </path>
  <path class="st0" d="M154.8,55.1c-0.4,0.8-0.9,1.3-1.5,1.7c-0.6,0.4-1.4,0.6-2.2,0.6c-1.3,0-2.3-0.4-3.1-1.3
		c-0.8-0.9-1.1-2.1-1.1-3.7c0-1,0.2-1.9,0.5-2.7c0.3-0.8,0.8-1.3,1.5-1.7c0.6-0.4,1.4-0.6,2.3-0.6c1.3,0,2.3,0.4,3.1,1.3
		c0.8,0.9,1.2,2.1,1.2,3.7C155.3,53.4,155.1,54.3,154.8,55.1z M158.2,43.1c-0.9,0-1.6,0.2-2.1,0.7c-0.5,0.5-0.7,1.2-0.7,2.2v0.1
		c-0.4-0.8-1.1-1.4-1.9-2c-1.2-0.7-2.5-1.1-4-1.1c-1.3,0-2.4,0.2-3.4,0.7c-1,0.4-1.9,1.1-2.6,1.9c-0.7,0.8-1.3,1.8-1.7,3
		c-0.4,1.1-0.6,2.4-0.6,3.8c0,1.9,0.3,3.5,1,4.9c0.7,1.4,1.7,2.5,2.9,3.3c1.3,0.8,2.7,1.2,4.4,1.2c1.5,0,2.8-0.4,4-1.1
		c0.9-0.6,1.6-1.3,2-2.1v2.1c0,1.5-0.4,2.7-1.2,3.4c-0.8,0.7-2,1.1-3.7,1.1c-0.7,0-1.5-0.1-2.5-0.2c-1-0.2-2-0.5-3.1-1
		c-0.5-0.2-0.9-0.2-1.3-0.1c-0.4,0.1-0.7,0.4-1,0.7c-0.3,0.4-0.4,0.8-0.5,1.2c0,0.5,0.1,0.9,0.3,1.3c0.2,0.4,0.7,0.7,1.2,1
		c1,0.5,2.1,0.8,3.4,1c1.3,0.2,2.6,0.3,4,0.3c3.2,0,5.7-0.8,7.5-2.4c1.7-1.6,2.6-4,2.6-7.1V46c0-0.9-0.2-1.7-0.7-2.2
		C159.8,43.3,159.1,43.1,158.2,43.1z">
  </path>
  <path class="st0" d="M182,48.8c0.4-0.4,0.9-0.8,1.5-1c0.6-0.2,1.3-0.4,2-0.4c0.5,0,1,0.1,1.5,0.2c0.5,0.1,1,0.3,1.5,0.6
		c0.5,0.3,1,0.3,1.4,0.2c0.4-0.1,0.7-0.3,1-0.7c0.3-0.3,0.4-0.7,0.5-1.2c0.1-0.4,0-0.9-0.2-1.3c-0.2-0.4-0.5-0.7-1.1-1
		c-0.9-0.5-1.8-0.8-2.6-1c-0.9-0.2-1.7-0.3-2.5-0.3c-1.5,0-2.9,0.2-4.2,0.7c-1.3,0.4-2.3,1.1-3.2,1.9c-0.9,0.8-1.6,1.9-2,3.1
		c-0.5,1.2-0.7,2.6-0.7,4.1c0,2,0.4,3.8,1.2,5.2c0.8,1.5,2,2.6,3.5,3.4c1.5,0.8,3.3,1.2,5.3,1.2c0.8,0,1.6-0.1,2.5-0.3
		c0.9-0.2,1.7-0.5,2.6-0.9c0.5-0.2,0.8-0.6,1-1c0.2-0.4,0.3-0.9,0.2-1.3c0-0.4-0.2-0.8-0.4-1.2c-0.2-0.3-0.6-0.6-1-0.7
		c-0.4-0.1-0.9-0.1-1.4,0.2c-0.5,0.3-1,0.5-1.5,0.6c-0.5,0.1-1,0.2-1.5,0.2c-1.5,0-2.7-0.5-3.5-1.4c-0.8-1-1.2-2.3-1.2-4
		c0-0.9,0.1-1.6,0.3-2.3C181.3,49.8,181.6,49.3,182,48.8z">
  </path>
  <path class="st1" d="M167.3,40.9c-0.9,0.1-1.6,0.5-2,1.3c-0.4,0.8-0.6,1.8-0.4,3.1c0,0,2.7,14.9,3.1,16.5c0.4,1.6,1.3,4.2,2.5,4
		c1.3-0.2,1.4-2.9,1.3-4.6c0,0-1.1-14.1-1.2-15.7c-0.1-1.7-0.5-3-1.1-3.6C169,41.1,168.2,40.8,167.3,40.9z">
  </path>
  <path class="st1" d="M166.5,22.5l3.1-4.7c0.5-0.8,1-0.7,1-0.1l-0.7,6c-0.1,0.6,0.4,1.3,1.2,1.2l5.3-1.2c0.3,0,0.6,0.4,0.3,0.7
		l-4,3.5c-0.6,0.7-0.6,1.4,0.2,1.9l3.6,2.2c0.2,0.2,0.1,0.5-0.2,0.5l-4.3,0.3c-0.9,0.1-1.3,0.8-1.2,1.7l1.4,5.2
		c0.1,0.3-0.2,0.6-0.6,0.2l-3.7-4c-0.7-0.6-1.6-0.5-2.2,0.2l-2.6,3.4c-0.2,0.2-0.7,0.1-0.6-0.2l0.2-4c-0.1-0.9-0.7-1.6-1.6-1.5
		l-4.2,1.3c-0.4,0.1-0.5-0.4-0.3-0.6l3.1-3.4c0.6-0.7,0.7-1.5-0.2-2l-4.5-2.1c-0.6-0.4-0.3-0.8,0.2-0.8l4.8-0.1
		c0.7,0,1.3-0.5,1.1-1.5c0,0-1.4-5-1.7-5.8c-0.3-0.8,0.5-1.3,1.1-0.7l4.1,4.4C165.2,23.2,165.9,23.3,166.5,22.5z">
  </path>
  <path class="st1" d="M164.9,16.5c-0.4,0-0.8-0.4-0.9-1l-2.7-13.7c-0.1-0.6,0.2-1.7,1.3-1.8c0.9-0.2,1.8,0.5,1.9,1.1l1,14.2
		C165.5,15.9,165.5,16.5,164.9,16.5z">
  </path>
  <path class="st1" d="M177.7,28.2c-0.1-0.6,0.5-0.7,1.1-0.7l12.9-2.2c0.8,0,1.2,0.8,1.2,1.3c0.2,0.6-0.6,1.6-1.7,1.5L179,28.6
		C178.4,28.6,177.8,28.8,177.7,28.2z">
  </path>
  <path class="st1" d="M138.6,32.4c-0.1-0.6,0.9-1.8,2.2-1.8l11.9-0.3c0.6-0.1,1.2,0.1,1.2,0.6c0,0.5-0.8,0.7-1.4,0.8l-12,2
		C139.7,33.6,138.4,33.2,138.6,32.4z">
  </path>
  <path class="st0" d="M174.4,19.5c-0.5-0.4,0.5-1.6,0.9-2.1l6.8-9.3c0.4-0.7,1.7-1.1,2.5-0.4c0.6,0.6,0.5,1.5,0.1,1.9l-9,9.5
		C175.3,19.5,174.8,19.7,174.4,19.5z">
  </path>
  <path class="st0" d="M143.1,11.8c0.6-0.9,1.9-0.6,2.4-0.2l9.3,8.4c0.5,0.4,0.7,1,0.4,1.2s-0.8,0.1-1.3-0.2l-10.7-7
		C142.8,13.6,142.5,12.6,143.1,11.8z">
  </path>
 </g>
</svg>