<?xml version="1.0" encoding="utf-8"?>
<!-- Generator: Adobe Illustrator 25.0.0, SVG Export Plug-In . SVG Version: 6.00 Build 0)  -->
<svg version="1.1" id="Layer_1" xmlns="http://www.w3.org/2000/svg" xmlns:xlink="http://www.w3.org/1999/xlink" x="0px" y="0px"
	 viewBox="0 0 109.7 44.8" style="enable-background:new 0 0 109.7 44.8;" xml:space="preserve">
<style type="text/css">
	.st0{fill:#0C1516;}
	.st1{filter:url(#Path_12583);}
	.st2{fill:url(#Path_12583-2_2_);}
	.st3{fill:#818E8F;}
</style>
<filter  filterUnits="userSpaceOnUse" height="104.667" id="Path_12583" width="119.912" x="0" y="0">
	<feOffset  dy="22" input="SourceAlpha"></feOffset>
	<feGaussianBlur  result="blur" stdDeviation="12"></feGaussianBlur>
	<feFlood  flood-color="#929a97" flood-opacity="0.322"></feFlood>
	<feComposite  in2="blur" operator="in"></feComposite>
	<feComposite  in="SourceGraphic" operator="over"></feComposite>
</filter>
<g id="Group_4958" transform="translate(-267.751 -372.5)">
	<g id="Group_4167" transform="translate(303.75 386.5)">
		<path id="Path_12584" class="st0" d="M-1.8,30.3V13.5h5.2v16.8H-1.8z M-2,5.4h5.6v4.8H-2V5.4z M7.7,30.3V6.1h5.2v24.2H7.7z
			 M17.2,30.3V6.1h5.2v24.2H17.2z M26.7,30.3V13.5h5.2v16.8H26.7z M26.5,5.4H32v4.8h-5.6V5.4z M44.3,30.6c-1.6,0-3.2-0.3-4.7-1.1
			c-1.3-0.7-2.4-1.8-3.1-3.1c-0.8-1.4-1.1-3-1.1-4.6c0-1.6,0.3-3.2,1.1-4.6c0.7-1.3,1.8-2.4,3.1-3c1.5-0.7,3.1-1.1,4.7-1.1
			c1.6,0,3.2,0.3,4.7,1.1c1.3,0.7,2.4,1.7,3.1,3c0.8,1.4,1.1,3,1.1,4.6c0,1.6-0.3,3.2-1.1,4.6c-0.7,1.3-1.8,2.4-3.1,3.1
			C47.5,30.2,45.9,30.6,44.3,30.6z M44.3,26.6c2.5,0,3.8-1.6,3.8-4.8c0.1-1.3-0.2-2.6-1-3.6c-0.7-0.8-1.7-1.3-2.8-1.2
			c-2.5,0-3.8,1.6-3.8,4.8C40.5,25,41.7,26.6,44.3,26.6L44.3,26.6z M67.2,13c1.7-0.1,3.3,0.5,4.5,1.8c1.1,1.6,1.6,3.4,1.5,5.3v10.1
			H68v-9.9c0.1-0.9-0.2-1.8-0.6-2.5c-0.5-0.6-1.2-0.9-2-0.8c-1,0-1.9,0.3-2.6,1c-0.7,0.7-1,1.7-1,2.7v9.4h-5.2V13.5h5v2.4
			c0.6-0.9,1.4-1.6,2.3-2.1C65,13.3,66.1,13,67.2,13z"/>
		<g id="Group_4165">
			<path id="Path_12581" class="st0" d="M-35.7,8.2v22h5.8V14L-35.7,8.2z"/>
			<path id="Path_12582" class="st0" d="M-12.5,15.5v14.7h5.8V9.7L-12.5,15.5z"/>
			<g transform="matrix(1, 0, 0, 1, -36, -14)" class="st1">
				
					<linearGradient id="Path_12583-2_2_" gradientUnits="userSpaceOnUse" x1="-903.2258" y1="565.0618" x2="-902.2228" y2="564.5618" gradientTransform="matrix(47.912 0 0 -32.672 43287.0039 18472.4121)">
					<stop  offset="0" style="stop-color:#20CC95"/>
					<stop  offset="1" style="stop-color:#205CCC"/>
				</linearGradient>
				<path id="Path_12583-2_1_" class="st2" d="M0.3,18.7l15.2,15.2L48.2,1.3l-32.7,25L0.3,18.7z"/>
			</g>
		</g>
	</g>
	<path id="Path_12585" class="st3" d="M344.3,387.5h2.1l-3.6,7.8h-1.6l-3.6-7.8h2.1l2.3,5.3L344.3,387.5z M351.1,392.9h-3.4
		c0,0.3,0.2,0.6,0.4,0.8c0.3,0.2,0.6,0.3,0.9,0.2c0.3,0,0.6,0,0.8-0.1c0.3-0.1,0.5-0.2,0.7-0.4l0.5,1.3c-0.3,0.2-0.6,0.4-1,0.5
		c-0.4,0.1-0.8,0.2-1.2,0.2c-0.6,0-1.1-0.1-1.6-0.3c-0.4-0.2-0.8-0.6-1.1-1c-0.3-0.5-0.4-1-0.4-1.5c0-0.5,0.1-1,0.4-1.5
		c0.2-0.4,0.6-0.8,1-1c0.4-0.2,0.9-0.4,1.4-0.4c0.7,0,1.4,0.2,1.9,0.8c0.5,0.6,0.7,1.3,0.7,2.1L351.1,392.9z M348.6,391
		c-0.5,0-0.8,0.3-0.9,1h1.7C349.4,391.4,349.1,391,348.6,391L348.6,391z M356.2,391.3l-1.1,0.1c-0.3,0-0.7,0.1-0.9,0.3
		c-0.2,0.2-0.3,0.5-0.3,0.8v2.7h-2v-5.5h1.9v0.9c0.1-0.3,0.3-0.6,0.6-0.8c0.3-0.2,0.7-0.3,1.1-0.3l0.5,0L356.2,391.3z M356.7,395.3
		v-5.5h2v5.5H356.7z M356.6,387.1h2.1v1.8h-2.1V387.1z M364.1,387.1h2.1v1.8h-2.1V387.1z M362.2,389.8h3.9v5.5h-2v-4h-1.9v4h-2v-4
		h-1v-1.5h1c0-0.7,0.3-1.3,0.8-1.8c0.6-0.4,1.3-0.7,2.1-0.6l0.5,0l0.1,1.4l-0.5,0c-0.3,0-0.6,0.1-0.8,0.2c-0.1,0.2-0.2,0.4-0.2,0.6
		L362.2,389.8z M372.3,392.9H369c0,0.3,0.2,0.6,0.4,0.8c0.3,0.2,0.6,0.3,0.9,0.2c0.3,0,0.6,0,0.8-0.1c0.3-0.1,0.5-0.2,0.7-0.4
		l0.5,1.3c-0.3,0.2-0.6,0.4-1,0.5c-0.4,0.1-0.8,0.2-1.2,0.2c-0.6,0-1.1-0.1-1.6-0.3c-0.4-0.2-0.8-0.6-1.1-1c-0.3-0.5-0.4-1-0.4-1.5
		c0-0.5,0.1-1,0.3-1.5c0.2-0.4,0.6-0.8,1-1c0.4-0.2,0.9-0.4,1.4-0.4c0.7,0,1.4,0.2,1.9,0.8c0.5,0.6,0.7,1.3,0.7,2.1V392.9z
		 M369.8,391c-0.5,0-0.8,0.3-0.9,1h1.7C370.6,391.4,370.4,391,369.8,391z M377.5,391.3l-1.1,0.1c-0.3,0-0.7,0.1-0.9,0.3
		c-0.2,0.2-0.3,0.5-0.3,0.8v2.7h-2v-5.5h1.9v0.9c0.1-0.3,0.3-0.6,0.6-0.8c0.3-0.2,0.7-0.3,1.1-0.3l0.5,0L377.5,391.3z"/>
</g>
</svg>
