<svg version="1.1" id="Layer_1" xmlns:x="ns_extend;" xmlns:i="ns_ai;" xmlns:graph="ns_graphs;" xmlns="http://www.w3.org/2000/svg" xmlns:xlink="http://www.w3.org/1999/xlink" x="0px" y="0px" viewBox="0 0 66.7 60" style="enable-background:new 0 0 66.7 60;" xml:space="preserve">
 <style type="text/css">
  .st0{fill-rule:evenodd;clip-rule:evenodd;fill:#3C55F5;}
 </style>
 <metadata>
  <sfw xmlns="ns_sfw;">
   <slices>
   </slices>
   <sliceSourceBounds bottomLeftOrigin="true" height="60" width="66.7" x="-182.5" y="1.1">
   </sliceSourceBounds>
  </sfw>
 </metadata>
 <g>
  <path class="st0" d="M26.9,2.2c0-1.2,1-2.2,2.2-2.2h8.5c1.2,0,2.2,1,2.2,2.2c0,1.2-1,2.2-2.3,2.2h-8.3C27.9,4.4,26.9,3.4,26.9,2.2z
		 M17.8,10c0-1.4,1.3-2.5,2.8-2.5h25.6c1.5,0,2.7,1.2,2.6,2.7c0,1.4-1.3,2.5-2.8,2.5h-6.3c-0.9,0-1.6,0.8-1.5,1.6
		c0.1,0.8,0.8,1.4,1.6,1.4h19.5c1.4,0,2.6,0.7,3.3,1.9c0.6,1,1.1,2.1,1.6,3.2c0.6,1.5-0.5,3.1-2.1,3.1H53c-1.1,0-2,0.9-1.9,2.1
		c0.1,1,1,1.7,2,1.7h10.6c1.8,0,3.2,1.6,3,3.4c-0.3,2-0.7,3.9-1.3,5.7c-0.4,1.2-1.6,2.1-2.9,2.1H35.6c-1.3,0-2.3,1-2.3,2.3
		c0,1.2,1.1,2.2,2.4,2.2h23.9c1.2,0,1.9,1.4,1.2,2.4C54.7,54.4,44.7,60,33.3,60C22,60,11.9,54.4,5.9,45.9c-0.7-1,0-2.4,1.2-2.4h5.5
		c1.3,0,2.3-1,2.3-2.3c0-1.2-1.1-2.2-2.4-2.2H4.2c-1.3,0-2.5-0.8-2.9-2.1c-0.6-1.8-1-3.8-1.3-5.7c0-0.1,0-0.2,0-0.3v-0.2
		c0-1.6,1.3-2.9,3-2.9h31.1c1.1,0,2-0.9,1.9-2.1c-0.1-1-1-1.7-2-1.7H4.6c-1.6,0-2.7-1.7-2.1-3.1c0.5-1.1,1-2.2,1.6-3.2
		c0.7-1.2,1.9-1.9,3.3-1.9h19.5c0.9,0,1.6-0.8,1.5-1.6c-0.1-0.8-0.8-1.4-1.6-1.4h-6.4C19,12.7,17.8,11.5,17.8,10z">
  </path>
 </g>
</svg>